<svg version="1.1" width="1em" height="1em" class="navi-icons" fill="currentColor" x="0px" y="0px" viewBox="0 0 122.88 99.83"
    style="enable-background:new 0 0 122.88 99.83" xml:space="preserve">
    <g>
        <path class="st0"
            d="M8.79,17.04h10.27v82.79H8.79C3.95,99.83,0,95.88,0,91.04V25.82C0,20.99,3.95,17.04,8.79,17.04L8.79,17.04z M52.34,0h17.49c5.44,0,9.89,4.45,9.89,9.89v5.28h-6.3v-5.3c0-1.91-1.56-3.47-3.47-3.47H52.22c-1.91,0-3.47,1.56-3.47,3.47v5.3 h-6.3V9.89C42.45,4.45,46.9,0,52.34,0L52.34,0z M24.28,17.04h73.15v82.79H24.28V17.04L24.28,17.04z M102.65,17.04h11.44 c4.83,0,8.79,3.95,8.79,8.79v65.22c0,4.83-3.95,8.79-8.79,8.79h-11.44V17.04L102.65,17.04z" />
    </g>
</svg>